<?xml version="1.0" encoding="UTF-8" standalone="no"?>
<!DOCTYPE svg PUBLIC "-//W3C//DTD SVG 1.1//EN"
 "http://www.w3.org/Graphics/SVG/1.1/DTD/svg11.dtd">
<!-- Generated by graphviz version 2.40.1 (20161225.0304)
 -->
<!-- Title: snakemake_dag Pages: 1 -->
<svg width="405pt" height="764pt"
 viewBox="0.00 0.00 405.00 764.00" xmlns="http://www.w3.org/2000/svg" xmlns:xlink="http://www.w3.org/1999/xlink">
<g id="graph0" class="graph" transform="scale(1 1) rotate(0) translate(4 760)">
<title>snakemake_dag</title>
<polygon fill="#ffffff" stroke="transparent" points="-4,4 -4,-760 401,-760 401,4 -4,4"/>
<!-- 0 -->
<g id="node1" class="node">
<title>0</title>
<polygon fill="#fcf3cf" stroke="#000000" stroke-width="2" points="245,-36 191,-36 191,0 245,0 245,-36"/>
<text text-anchor="middle" x="218" y="-15.5" font-family="sans" font-size="10.00" fill="#000000">lora</text>
</g>
<!-- 2 -->
<g id="node2" class="node">
<title>2</title>
<polygon fill="#fcf3cf" stroke="#000000" stroke-width="2" points="245,-108 191,-108 191,-72 245,-72 245,-108"/>
<text text-anchor="middle" x="218" y="-87.5" font-family="sans" font-size="10.00" fill="#000000">multiqc</text>
</g>
<!-- 2&#45;&gt;0 -->
<g id="edge1" class="edge">
<title>2&#45;&gt;0</title>
<path fill="none" stroke="#000000" stroke-width="2" d="M218,-71.8314C218,-64.131 218,-54.9743 218,-46.4166"/>
<polygon fill="#000000" stroke="#000000" stroke-width="2" points="221.5001,-46.4132 218,-36.4133 214.5001,-46.4133 221.5001,-46.4132"/>
</g>
<!-- 3 -->
<g id="node3" class="node">
<title>3</title>
<polygon fill="#fcf3cf" stroke="#000000" stroke-width="2" points="54,-252 0,-252 0,-216 54,-216 54,-252"/>
<text text-anchor="middle" x="27" y="-231.5" font-family="sans" font-size="10.00" fill="#000000">quast</text>
</g>
<!-- 3&#45;&gt;2 -->
<g id="edge6" class="edge">
<title>3&#45;&gt;2</title>
<path fill="none" stroke="#000000" stroke-width="2" d="M28.0845,-215.9942C30.2479,-195.846 36.7122,-163.4823 56,-144 89.3165,-110.3475 144.1268,-97.667 180.6378,-92.889"/>
<polygon fill="#000000" stroke="#000000" stroke-width="2" points="181.3507,-96.3296 190.8769,-91.6924 180.5382,-89.3769 181.3507,-96.3296"/>
</g>
<!-- 4 -->
<g id="node4" class="node">
<title>4</title>
<polygon fill="#fcf3cf" stroke="#000000" stroke-width="2" points="189.5,-468 106.5,-468 106.5,-432 189.5,-432 189.5,-468"/>
<text text-anchor="middle" x="148" y="-447.5" font-family="sans" font-size="10.00" fill="#000000">bam_to_fastq</text>
</g>
<!-- 4&#45;&gt;3 -->
<g id="edge7" class="edge">
<title>4&#45;&gt;3</title>
<path fill="none" stroke="#000000" stroke-width="2" d="M137.8917,-431.9555C116.6278,-393.9967 67.1724,-305.7127 42.121,-260.9928"/>
<polygon fill="#000000" stroke="#000000" stroke-width="2" points="45.1054,-259.1589 37.1646,-252.1451 38.9984,-262.58 45.1054,-259.1589"/>
</g>
<!-- 6 -->
<g id="node6" class="node">
<title>6</title>
<polygon fill="#fcf3cf" stroke="#000000" stroke-width="2" points="244,-396 190,-396 190,-360 244,-360 244,-396"/>
<text text-anchor="middle" x="217" y="-375.5" font-family="sans" font-size="10.00" fill="#000000">flye</text>
</g>
<!-- 4&#45;&gt;6 -->
<g id="edge11" class="edge">
<title>4&#45;&gt;6</title>
<path fill="none" stroke="#000000" stroke-width="2" d="M165.4116,-431.8314C173.521,-423.3694 183.3156,-413.1489 192.182,-403.8971"/>
<polygon fill="#000000" stroke="#000000" stroke-width="2" points="194.9618,-406.0549 199.354,-396.4133 189.9079,-401.2115 194.9618,-406.0549"/>
</g>
<!-- 8 -->
<g id="node8" class="node">
<title>8</title>
<polygon fill="#fcf3cf" stroke="#000000" stroke-width="2" points="224,-252 72,-252 72,-216 224,-216 224,-252"/>
<text text-anchor="middle" x="148" y="-231.5" font-family="sans" font-size="10.00" fill="#000000">minimap2_and_genomecov</text>
</g>
<!-- 4&#45;&gt;8 -->
<g id="edge13" class="edge">
<title>4&#45;&gt;8</title>
<path fill="none" stroke="#000000" stroke-width="2" d="M148,-431.9555C148,-394.3938 148,-307.5541 148,-262.4103"/>
<polygon fill="#000000" stroke="#000000" stroke-width="2" points="151.5001,-262.145 148,-252.1451 144.5001,-262.1451 151.5001,-262.145"/>
</g>
<!-- 5 -->
<g id="node5" class="node">
<title>5</title>
<polygon fill="#fcf3cf" stroke="#000000" stroke-width="2" points="267.5,-324 196.5,-324 196.5,-288 267.5,-288 267.5,-324"/>
<text text-anchor="middle" x="232" y="-303.5" font-family="sans" font-size="10.00" fill="#000000">seqkit_sort</text>
</g>
<!-- 5&#45;&gt;3 -->
<g id="edge8" class="edge">
<title>5&#45;&gt;3</title>
<path fill="none" stroke="#000000" stroke-width="2" d="M196.4807,-296.3827C163.9149,-287.186 114.3174,-272.2274 63.7629,-252.0345"/>
<polygon fill="#000000" stroke="#000000" stroke-width="2" points="64.8984,-248.7182 54.3161,-248.2034 62.2676,-255.2051 64.8984,-248.7182"/>
</g>
<!-- 5&#45;&gt;8 -->
<g id="edge14" class="edge">
<title>5&#45;&gt;8</title>
<path fill="none" stroke="#000000" stroke-width="2" d="M210.8033,-287.8314C200.5566,-279.0485 188.0997,-268.3712 176.9903,-258.8489"/>
<polygon fill="#000000" stroke="#000000" stroke-width="2" points="179.0603,-256.0134 169.19,-252.1628 174.5048,-261.3282 179.0603,-256.0134"/>
</g>
<!-- 9 -->
<g id="node9" class="node">
<title>9</title>
<polygon fill="#fcf3cf" stroke="#000000" stroke-width="2" points="245,-180 191,-180 191,-144 245,-144 245,-180"/>
<text text-anchor="middle" x="218" y="-159.5" font-family="sans" font-size="10.00" fill="#000000">busco</text>
</g>
<!-- 5&#45;&gt;9 -->
<g id="edge15" class="edge">
<title>5&#45;&gt;9</title>
<path fill="none" stroke="#000000" stroke-width="2" d="M233.7409,-287.9743C235.1419,-269.7356 236.3767,-240.7725 233,-216 231.8228,-207.3639 229.6329,-198.1599 227.283,-189.8427"/>
<polygon fill="#000000" stroke="#000000" stroke-width="2" points="230.6257,-188.8042 224.3948,-180.2353 223.922,-190.8195 230.6257,-188.8042"/>
</g>
<!-- 10 -->
<g id="node10" class="node">
<title>10</title>
<polygon fill="#fcf3cf" stroke="#000000" stroke-width="2" points="317,-180 263,-180 263,-144 317,-144 317,-180"/>
<text text-anchor="middle" x="290" y="-159.5" font-family="sans" font-size="10.00" fill="#000000">prokka</text>
</g>
<!-- 5&#45;&gt;10 -->
<g id="edge16" class="edge">
<title>5&#45;&gt;10</title>
<path fill="none" stroke="#000000" stroke-width="2" d="M239.3457,-287.7623C249.3256,-262.9846 267.2546,-218.4714 278.8858,-189.5939"/>
<polygon fill="#000000" stroke="#000000" stroke-width="2" points="282.2243,-190.6731 282.7139,-180.0896 275.7312,-188.0578 282.2243,-190.6731"/>
</g>
<!-- 12 -->
<g id="node12" class="node">
<title>12</title>
<polygon fill="#fcf3cf" stroke="#000000" stroke-width="2" points="397,-252 321,-252 321,-216 397,-216 397,-252"/>
<text text-anchor="middle" x="359" y="-231.5" font-family="sans" font-size="10.00" fill="#000000">seqkit_head</text>
</g>
<!-- 5&#45;&gt;12 -->
<g id="edge18" class="edge">
<title>5&#45;&gt;12</title>
<path fill="none" stroke="#000000" stroke-width="2" d="M264.0475,-287.8314C280.442,-278.5368 300.5786,-267.1208 318.0829,-257.1971"/>
<polygon fill="#000000" stroke="#000000" stroke-width="2" points="319.9897,-260.1395 326.9628,-252.1628 316.5374,-254.05 319.9897,-260.1395"/>
</g>
<!-- 6&#45;&gt;5 -->
<g id="edge10" class="edge">
<title>6&#45;&gt;5</title>
<path fill="none" stroke="#000000" stroke-width="2" d="M220.7851,-359.8314C222.3894,-352.131 224.297,-342.9743 226.0799,-334.4166"/>
<polygon fill="#000000" stroke="#000000" stroke-width="2" points="229.5507,-334.9169 228.1639,-324.4133 222.6979,-333.4892 229.5507,-334.9169"/>
</g>
<!-- 7 -->
<g id="node7" class="node">
<title>7</title>
<polygon fill="#fcf3cf" stroke="#000000" stroke-width="2" points="173,-180 65,-180 65,-144 173,-144 173,-180"/>
<text text-anchor="middle" x="119" y="-159.5" font-family="sans" font-size="10.00" fill="#000000">sequana_coverage</text>
</g>
<!-- 7&#45;&gt;2 -->
<g id="edge2" class="edge">
<title>7&#45;&gt;2</title>
<path fill="none" stroke="#000000" stroke-width="2" d="M143.9819,-143.8314C156.2928,-134.8779 171.3107,-123.9558 184.5937,-114.2955"/>
<polygon fill="#000000" stroke="#000000" stroke-width="2" points="186.9973,-116.8752 193.0261,-108.1628 182.8801,-111.214 186.9973,-116.8752"/>
</g>
<!-- 8&#45;&gt;7 -->
<g id="edge12" class="edge">
<title>8&#45;&gt;7</title>
<path fill="none" stroke="#000000" stroke-width="2" d="M140.6821,-215.8314C137.5124,-207.9617 133.73,-198.5712 130.2187,-189.8533"/>
<polygon fill="#000000" stroke="#000000" stroke-width="2" points="133.3992,-188.3815 126.4165,-180.4133 126.9061,-190.9968 133.3992,-188.3815"/>
</g>
<!-- 9&#45;&gt;2 -->
<g id="edge3" class="edge">
<title>9&#45;&gt;2</title>
<path fill="none" stroke="#000000" stroke-width="2" d="M218,-143.8314C218,-136.131 218,-126.9743 218,-118.4166"/>
<polygon fill="#000000" stroke="#000000" stroke-width="2" points="221.5001,-118.4132 218,-108.4133 214.5001,-118.4133 221.5001,-118.4132"/>
</g>
<!-- 10&#45;&gt;2 -->
<g id="edge5" class="edge">
<title>10&#45;&gt;2</title>
<path fill="none" stroke="#000000" stroke-width="2" d="M271.8314,-143.8314C263.2848,-135.2848 252.9443,-124.9443 243.6198,-115.6198"/>
<polygon fill="#000000" stroke="#000000" stroke-width="2" points="245.9592,-113.0095 236.4133,-108.4133 241.0095,-117.9592 245.9592,-113.0095"/>
</g>
<!-- 11 -->
<g id="node11" class="node">
<title>11</title>
<polygon fill="#fcf3cf" stroke="#000000" stroke-width="2" points="389,-180 335,-180 335,-144 389,-144 389,-180"/>
<text text-anchor="middle" x="362" y="-159.5" font-family="sans" font-size="10.00" fill="#000000">blast</text>
</g>
<!-- 11&#45;&gt;2 -->
<g id="edge4" class="edge">
<title>11&#45;&gt;2</title>
<path fill="none" stroke="#000000" stroke-width="2" d="M334.9147,-148.4574C312.2307,-137.1153 279.6433,-120.8217 254.6319,-108.316"/>
<polygon fill="#000000" stroke="#000000" stroke-width="2" points="255.963,-105.0684 245.4534,-103.7267 252.8325,-111.3294 255.963,-105.0684"/>
</g>
<!-- 12&#45;&gt;11 -->
<g id="edge17" class="edge">
<title>12&#45;&gt;11</title>
<path fill="none" stroke="#000000" stroke-width="2" d="M359.757,-215.8314C360.0779,-208.131 360.4594,-198.9743 360.816,-190.4166"/>
<polygon fill="#000000" stroke="#000000" stroke-width="2" points="364.3133,-190.5503 361.2328,-180.4133 357.3194,-190.2589 364.3133,-190.5503"/>
</g>
<!-- 13 -->
<g id="node13" class="node">
<title>13</title>
<polygon fill="#fcf3cf" stroke="#000000" stroke-width="2" points="193.5,-540 102.5,-540 102.5,-504 193.5,-504 193.5,-540"/>
<text text-anchor="middle" x="148" y="-519.5" font-family="sans" font-size="10.00" fill="#000000">flowcell_merge</text>
</g>
<!-- 13&#45;&gt;4 -->
<g id="edge9" class="edge">
<title>13&#45;&gt;4</title>
<path fill="none" stroke="#000000" stroke-width="2" d="M148,-503.8314C148,-496.131 148,-486.9743 148,-478.4166"/>
<polygon fill="#000000" stroke="#000000" stroke-width="2" points="151.5001,-478.4132 148,-468.4133 144.5001,-478.4133 151.5001,-478.4132"/>
</g>
<!-- 14 -->
<g id="node14" class="node">
<title>14</title>
<polygon fill="#fcf3cf" stroke="#000000" stroke-width="2" points="182.5,-612 113.5,-612 113.5,-576 182.5,-576 182.5,-612"/>
<text text-anchor="middle" x="148" y="-591.5" font-family="sans" font-size="10.00" fill="#000000">ccs_merge</text>
</g>
<!-- 14&#45;&gt;13 -->
<g id="edge19" class="edge">
<title>14&#45;&gt;13</title>
<path fill="none" stroke="#000000" stroke-width="2" d="M148,-575.8314C148,-568.131 148,-558.9743 148,-550.4166"/>
<polygon fill="#000000" stroke="#000000" stroke-width="2" points="151.5001,-550.4132 148,-540.4133 144.5001,-550.4133 151.5001,-550.4132"/>
</g>
<!-- 15 -->
<g id="node15" class="node">
<title>15</title>
<polygon fill="#fcf3cf" stroke="#000000" stroke-width="2" points="175,-684 121,-684 121,-648 175,-648 175,-684"/>
<text text-anchor="middle" x="148" y="-663.5" font-family="sans" font-size="10.00" fill="#000000">ccs</text>
</g>
<!-- 15&#45;&gt;14 -->
<g id="edge20" class="edge">
<title>15&#45;&gt;14</title>
<path fill="none" stroke="#000000" stroke-width="2" d="M148,-647.8314C148,-640.131 148,-630.9743 148,-622.4166"/>
<polygon fill="#000000" stroke="#000000" stroke-width="2" points="151.5001,-622.4132 148,-612.4133 144.5001,-622.4133 151.5001,-622.4132"/>
</g>
<!-- 16 -->
<g id="node16" class="node">
<title>16</title>
<polygon fill="#fcf3cf" stroke="#000000" stroke-width="2" points="197.5,-756 98.5,-756 98.5,-720 197.5,-720 197.5,-756"/>
<text text-anchor="middle" x="148" y="-735.5" font-family="sans" font-size="10.00" fill="#000000">setup_ccs_chunk</text>
</g>
<!-- 16&#45;&gt;15 -->
<g id="edge21" class="edge">
<title>16&#45;&gt;15</title>
<path fill="none" stroke="#000000" stroke-width="2" d="M148,-719.8314C148,-712.131 148,-702.9743 148,-694.4166"/>
<polygon fill="#000000" stroke="#000000" stroke-width="2" points="151.5001,-694.4132 148,-684.4133 144.5001,-694.4133 151.5001,-694.4132"/>
</g>
</g>
</svg>
